<mxfile host="app.diagrams.net" modified="2023-05-15T23:38:41.275Z" agent="Mozilla/5.0 (Windows NT 10.0; Win64; x64; rv:102.0) Gecko/20100101 Firefox/102.0" version="21.3.2" etag="nI1jc7g3NESdj0WtW8KR" type="github">
  <diagram name="PÃ¡gina-1" id="GnVMeDTT1pEYchhtR7q6">
    <mxGraphModel>
      <root>
        <mxCell id="0" />
        <mxCell id="1" parent="0" />
      </root>
    </mxGraphModel>
  </diagram>
</mxfile>
